REM DIRINDEX 1\2,1\3,1\4,1\5\6,1\5\7,1\8
REM DIRNAME cjc115,folder01,folder02,folder03,folder04,folder05,folder06,folder07
TITLE ""
FILE "106 Åy106ÅzUnit6 (1201 counterpart_1212 physics).mp3" MP3
  TRACK 01 AUDIO
    TITLE "0:"
    INDEX 01 00:00:00
  TRACK 02 AUDIO
    TITLE "2:cjc115_4126"
    INDEX 01 00:00:07
  TRACK 03 AUDIO
    TITLE "0:"
    INDEX 01 00:01:34
  TRACK 04 AUDIO
    TITLE "3:cjc115_4127"
    INDEX 01 00:01:44
  TRACK 05 AUDIO
    TITLE "0:"
    INDEX 01 00:05:67
  TRACK 06 AUDIO
    TITLE "4:cjc115_4128"
    INDEX 01 00:06:00
  TRACK 07 AUDIO
    TITLE "0:"
    INDEX 01 00:10:21
  TRACK 08 AUDIO
    TITLE "2:cjc115_4129"
    INDEX 01 00:11:29
  TRACK 09 AUDIO
    TITLE "0:"
    INDEX 01 00:12:69
  TRACK 10 AUDIO
    TITLE "3:cjc115_4130"
    INDEX 01 00:13:04
  TRACK 11 AUDIO
    TITLE "0:"
    INDEX 01 00:14:23
  TRACK 12 AUDIO
    TITLE "4:cjc115_4131"
    INDEX 01 00:14:31
  TRACK 13 AUDIO
    TITLE "0:"
    INDEX 01 00:17:43
  TRACK 14 AUDIO
    TITLE "2:cjc115_4132"
    INDEX 01 00:18:50
  TRACK 15 AUDIO
    TITLE "0:"
    INDEX 01 00:19:67
  TRACK 16 AUDIO
    TITLE "3:cjc115_4133"
    INDEX 01 00:20:00
  TRACK 17 AUDIO
    TITLE "0:"
    INDEX 01 00:23:10
  TRACK 18 AUDIO
    TITLE "4:cjc115_4134"
    INDEX 01 00:23:18
  TRACK 19 AUDIO
    TITLE "0:"
    INDEX 01 00:27:02
  TRACK 20 AUDIO
    TITLE "2:cjc115_4135"
    INDEX 01 00:28:12
  TRACK 21 AUDIO
    TITLE "0:"
    INDEX 01 00:29:21
  TRACK 22 AUDIO
    TITLE "3:cjc115_4136"
    INDEX 01 00:29:33
  TRACK 23 AUDIO
    TITLE "0:"
    INDEX 01 00:30:71
  TRACK 24 AUDIO
    TITLE "4:cjc115_4137"
    INDEX 01 00:31:06
  TRACK 25 AUDIO
    TITLE "0:"
    INDEX 01 00:34:08
  TRACK 26 AUDIO
    TITLE "2:cjc115_4138"
    INDEX 01 00:35:17
  TRACK 27 AUDIO
    TITLE "0:"
    INDEX 01 00:36:36
  TRACK 28 AUDIO
    TITLE "3:cjc115_4139"
    INDEX 01 00:36:44
  TRACK 29 AUDIO
    TITLE "0:"
    INDEX 01 00:37:63
  TRACK 30 AUDIO
    TITLE "4:cjc115_4140"
    INDEX 01 00:37:71
  TRACK 31 AUDIO
    TITLE "0:"
    INDEX 01 00:40:68
  TRACK 32 AUDIO
    TITLE "2:cjc115_4141"
    INDEX 01 00:42:04
  TRACK 33 AUDIO
    TITLE "0:"
    INDEX 01 00:43:25
  TRACK 34 AUDIO
    TITLE "3:cjc115_4142"
    INDEX 01 00:43:33
  TRACK 35 AUDIO
    TITLE "0:"
    INDEX 01 00:44:73
  TRACK 36 AUDIO
    TITLE "4:cjc115_4143"
    INDEX 01 00:45:08
  TRACK 37 AUDIO
    TITLE "0:"
    INDEX 01 00:48:40
  TRACK 38 AUDIO
    TITLE "2:cjc115_4144"
    INDEX 01 00:49:49
  TRACK 39 AUDIO
    TITLE "0:"
    INDEX 01 00:50:48
  TRACK 40 AUDIO
    TITLE "3:cjc115_4145"
    INDEX 01 00:50:56
  TRACK 41 AUDIO
    TITLE "0:"
    INDEX 01 00:52:30
  TRACK 42 AUDIO
    TITLE "4:cjc115_4146"
    INDEX 01 00:52:39
  TRACK 43 AUDIO
    TITLE "0:"
    INDEX 01 00:56:25
  TRACK 44 AUDIO
    TITLE "2:cjc115_4147"
    INDEX 01 00:57:33
  TRACK 45 AUDIO
    TITLE "0:"
    INDEX 01 00:58:44
  TRACK 46 AUDIO
    TITLE "3:cjc115_4148"
    INDEX 01 00:58:52
  TRACK 47 AUDIO
    TITLE "0:"
    INDEX 01 01:01:40
  TRACK 48 AUDIO
    TITLE "4:cjc115_4149"
    INDEX 01 01:01:48
  TRACK 49 AUDIO
    TITLE "0:"
    INDEX 01 01:06:28
  TRACK 50 AUDIO
    TITLE "2:cjc115_4150"
    INDEX 01 01:07:35
  TRACK 51 AUDIO
    TITLE "0:"
    INDEX 01 01:08:52
  TRACK 52 AUDIO
    TITLE "3:cjc115_4151"
    INDEX 01 01:08:60
  TRACK 53 AUDIO
    TITLE "0:"
    INDEX 01 01:09:73
  TRACK 54 AUDIO
    TITLE "4:cjc115_4152"
    INDEX 01 01:10:06
  TRACK 55 AUDIO
    TITLE "0:"
    INDEX 01 01:13:38
  TRACK 56 AUDIO
    TITLE "2:cjc115_4153"
    INDEX 01 01:14:47
  TRACK 57 AUDIO
    TITLE "0:"
    INDEX 01 01:15:74
  TRACK 58 AUDIO
    TITLE "3:cjc115_4154"
    INDEX 01 01:16:05
  TRACK 59 AUDIO
    TITLE "0:"
    INDEX 01 01:18:25
  TRACK 60 AUDIO
    TITLE "4:cjc115_4155"
    INDEX 01 01:18:39
  TRACK 61 AUDIO
    TITLE "0:"
    INDEX 01 01:21:63
  TRACK 62 AUDIO
    TITLE "2:cjc115_4156"
    INDEX 01 01:22:74
  TRACK 63 AUDIO
    TITLE "0:"
    INDEX 01 01:24:39
  TRACK 64 AUDIO
    TITLE "3:cjc115_4157"
    INDEX 01 01:24:45
  TRACK 65 AUDIO
    TITLE "0:"
    INDEX 01 01:25:57
  TRACK 66 AUDIO
    TITLE "4:cjc115_4158"
    INDEX 01 01:25:68
  TRACK 67 AUDIO
    TITLE "0:"
    INDEX 01 01:29:11
  TRACK 68 AUDIO
    TITLE "2:cjc115_4159"
    INDEX 01 01:30:18
  TRACK 69 AUDIO
    TITLE "0:"
    INDEX 01 01:31:36
  TRACK 70 AUDIO
    TITLE "3:cjc115_4160"
    INDEX 01 01:31:41
  TRACK 71 AUDIO
    TITLE "0:"
    INDEX 01 01:32:64
  TRACK 72 AUDIO
    TITLE "4:cjc115_4161"
    INDEX 01 01:32:74
  TRACK 73 AUDIO
    TITLE "0:"
    INDEX 01 01:35:71
